<?xml version="1.0" standalone="no"?>
<!DOCTYPE svg PUBLIC "-//W3C//DTD SVG 20010904//EN"
 "http://www.w3.org/TR/2001/REC-SVG-20010904/DTD/svg10.dtd">
<svg version="1.0" xmlns="http://www.w3.org/2000/svg"
 width="256.000000pt" height="256.000000pt" viewBox="0 0 256.000000 256.000000"
 preserveAspectRatio="xMidYMid meet">
<metadata>
Created by potrace 1.11, written by Peter Selinger 2001-2013
</metadata>
<g transform="translate(0.000000,256.000000) scale(0.100000,-0.100000)"
fill="#000000" stroke="none">
<path d="M1238 2503 c-39 -13 -48 -21 -48 -40 0 -16 8 -27 25 -33 45 -17 51
-50 67 -356 l11 -211 -23 -31 c-13 -18 -31 -32 -39 -32 -8 0 -43 -29 -78 -65
-44 -45 -70 -65 -88 -65 -14 0 -29 -8 -35 -20 -6 -11 -19 -20 -28 -20 -10 0
-33 -11 -51 -24 -41 -31 -90 -51 -99 -42 -7 7 -8 269 -1 351 3 39 -15 89 -62
176 -10 20 -19 43 -19 52 0 12 -39 47 -53 47 -13 0 -101 -164 -163 -305 -7
-16 -22 -51 -34 -76 -53 -118 -46 -320 15 -445 23 -48 91 -115 142 -142 27
-15 93 -15 128 -2 40 15 152 99 202 150 56 58 68 70 168 163 78 73 84 77 95
58 6 -12 12 -51 13 -88 l2 -68 -40 -20 c-43 -21 -89 -53 -170 -120 -27 -23
-75 -56 -106 -73 -32 -18 -73 -51 -93 -75 -20 -23 -43 -49 -50 -57 -122 -136
-152 -267 -92 -403 41 -91 41 -118 1 -179 -19 -29 -35 -56 -35 -60 0 -5 -6 -8
-13 -8 -7 0 -26 -14 -42 -30 -22 -23 -36 -29 -52 -25 -12 3 -24 1 -28 -4 -10
-16 -7 -153 3 -163 17 -17 89 15 139 62 27 24 65 57 86 72 20 15 37 34 37 41
0 7 9 18 20 25 11 7 20 18 20 26 0 16 91 111 146 152 22 16 51 42 66 57 15 16
32 26 37 23 5 -4 47 -2 93 3 45 5 90 5 98 1 13 -7 16 -25 14 -102 -3 -89 -11
-195 -19 -248 -2 -14 -7 -46 -11 -72 -5 -37 -10 -45 -23 -40 -18 6 -133 83
-155 104 -8 7 -31 27 -52 43 -20 17 -54 45 -76 64 -50 44 -60 33 -17 -17 58
-67 162 -182 212 -233 26 -28 47 -56 47 -64 0 -19 70 -90 103 -104 26 -10 31
-9 63 23 32 32 42 63 35 116 0 8 -4 58 -7 110 -3 52 -12 162 -20 244 -17 175
-15 190 29 182 170 -29 222 -41 298 -71 129 -50 151 -63 147 -87 -2 -16 -18
-27 -63 -42 -75 -26 -110 -46 -99 -56 14 -11 133 -42 188 -47 30 -3 66 -16 94
-34 62 -39 111 -48 131 -23 9 11 42 33 74 49 l59 29 -6 38 c-7 41 -29 88 -61
129 -15 18 -34 27 -68 32 -26 4 -60 16 -75 27 -15 11 -53 24 -84 29 -31 6 -77
17 -103 25 -25 9 -58 16 -73 16 -15 1 -54 7 -86 15 -33 8 -63 12 -68 9 -5 -3
-14 -1 -21 4 -13 11 -133 9 -144 -2 -3 -3 -21 -6 -40 -6 -26 0 -33 4 -33 19 0
11 -4 22 -9 25 -15 10 -11 256 4 293 15 34 98 142 177 231 27 29 48 58 48 65
0 8 16 32 35 54 67 79 36 135 -81 148 -42 5 -75 3 -111 -8 -49 -15 -52 -15
-72 7 -19 20 -20 28 -11 108 8 82 22 128 38 128 4 0 39 30 77 66 39 36 93 83
120 104 54 40 125 114 125 130 0 14 -39 37 -90 51 -25 7 -50 17 -56 23 -11 11
-38 82 -48 127 -6 26 -30 43 -79 54 -39 8 -43 29 -19 88 20 47 21 51 4 63 -9
7 -26 13 -37 12 -11 -1 -45 2 -75 5 -38 4 -70 1 -102 -10z m232 -437 c16 -16
12 -87 -7 -108 -23 -25 -65 -23 -92 6 -24 25 -23 41 5 143 2 7 18 22 36 33
l33 20 7 -42 c4 -23 12 -46 18 -52z m-169 -716 c4 -14 7 -49 8 -79 1 -57 -16
-94 -69 -153 -15 -16 -34 -42 -41 -56 -7 -15 -26 -42 -41 -60 -16 -18 -28 -37
-28 -42 0 -6 -29 -42 -65 -81 -36 -39 -65 -75 -65 -80 0 -6 -15 -25 -32 -42
-18 -18 -54 -56 -81 -84 -65 -72 -82 -80 -95 -45 -35 92 -39 165 -10 199 8 10
8 17 0 25 -6 6 -7 17 -2 27 4 9 22 46 40 83 26 55 51 84 142 170 107 100 182
158 203 158 6 0 31 20 55 45 49 50 70 54 81 15z m32 -481 c5 -43 4 -78 -4
-106 -11 -40 -14 -43 -48 -43 -20 -1 -54 -7 -76 -15 -43 -16 -78 -19 -88 -8
-4 3 10 25 31 47 21 23 58 70 81 106 74 111 92 114 104 19z"/>
</g>
</svg>
